<svg xmlns="http://www.w3.org/2000/svg" version="1.1" xmlns:xlink="http://www.w3.org/1999/xlink" width="1000" height="1000"><style>
    #light-icon {
      display: inline;
    }
    #dark-icon {
      display: none;
    }

    @media (prefers-color-scheme: dark) {
      #light-icon {
        display: none;
      }
      #dark-icon {
        display: inline;
      }
    }
  </style><g id="light-icon"><svg xmlns="http://www.w3.org/2000/svg" version="1.1" xmlns:xlink="http://www.w3.org/1999/xlink" width="1000" height="1000"><g><g transform="matrix(41.666666666666664,0,0,41.666666666666664,62.5,0)"><svg xmlns="http://www.w3.org/2000/svg" width="21" height="24" viewBox="0 0 21 24" fill="none"><g clip-path="url(#clip0_2769_14651)">
<path d="M0.00292969 19.8096C1.34739 21.0827 3.31199 22.1074 5.72461 22.1074C6.94695 22.1074 8.23445 21.5787 9.44922 20.5811L9.51465 20.5283L9.58691 20.5703C9.99619 20.8057 10.4184 21.0175 10.8516 21.2041L10.9707 21.2539L10.9141 21.3721C10.4877 22.2615 10.1245 23.1492 9.83594 24H4.30762C1.96783 23.9998 0.0649885 22.1344 0.00292969 19.8096ZM20.8105 20.9619C20.2687 22.7213 18.6305 23.9999 16.6934 24H12.665C12.8724 23.3605 13.12 22.7128 13.4033 22.0791L13.4424 21.9912L13.5361 22.0088C14.4401 22.1761 15.4132 22.2607 16.4268 22.2607C18.1514 22.2607 19.6291 21.7327 20.8105 20.9619ZM20.2773 15.1836C20.5772 15.1837 20.8187 15.2765 21.001 15.4229V17.2979C20.1142 18.4742 17.9618 19.6621 16.3486 19.6621C15.8714 19.6621 15.3993 19.6366 14.9473 19.5869L14.749 19.5654L14.8594 19.3955C16.5991 16.7189 18.5736 15.1836 20.2773 15.1836ZM1.68164 15.2529C3.33216 15.2529 4.55322 16.3954 5.9668 17.7178C6.31512 18.0436 6.67532 18.3811 7.06055 18.7197L7.19043 18.833L7.04199 18.9199C6.33272 19.3356 5.65691 19.5459 5.03418 19.5459C2.77375 19.5456 0.657707 17.3933 0.657227 16.415C0.657227 15.8442 1.04056 15.253 1.68164 15.2529ZM16.6934 0C19.0724 0.000163331 21.001 1.92857 21.001 4.30762V12.5137C20.8098 12.4858 20.6074 12.4688 20.3926 12.4688C17.7716 12.4688 14.8213 14.794 12.2979 18.8467L12.2441 18.9336L12.1484 18.8955C11.9856 18.8287 11.8245 18.7574 11.665 18.6826L11.5186 18.6143L11.623 18.4902C13.7745 15.9374 15.0594 12.8033 15.0596 10.1064C15.0596 5.67167 12.4941 4.5 11.1377 4.5C8.50185 4.50007 6.99023 6.5435 6.99023 10.1064C6.99032 13.0946 7.82175 15.0083 9.46191 15.7959C9.50298 15.7427 9.54341 15.6884 9.58398 15.6348L11.0166 13.2764C10.8317 13.2848 10.6419 13.2092 10.4531 13.0117C9.98342 12.52 9.52167 11.2969 9.56152 10.1016C9.62319 8.2268 10.1976 7.15137 11.1377 7.15137C11.9831 7.15148 12.621 8.42155 12.6211 10.1055C12.6211 11.9631 11.2127 14.8748 9.27344 17.0283L9.19629 17.1143L9.10645 17.042C8.59955 16.6307 8.12157 16.2052 7.65918 15.7939C5.87085 14.2039 4.18123 12.702 1.37305 12.584C0.88799 12.5631 0.42246 12.6664 0 12.8662V4.30762C0 1.9286 1.92866 0.000225083 4.30762 0H16.6934Z" fill="#034C53"></path>
</g><defs>
<clipPath id="clip0_2769_14651">
<rect width="21" height="24" fill="white"></rect>
</clipPath>
</defs></svg></g></g></svg></g><g id="dark-icon"><svg xmlns="http://www.w3.org/2000/svg" version="1.1" xmlns:xlink="http://www.w3.org/1999/xlink" width="1000" height="1000"><g><g transform="matrix(41.666666666666664,0,0,41.666666666666664,62.5,0)"><svg xmlns="http://www.w3.org/2000/svg" width="21" height="24" viewBox="0 0 21 24" fill="none"><g clip-path="url(#clip0_2769_14651)">
<path d="M0.00292969 19.8096C1.34739 21.0827 3.31199 22.1074 5.72461 22.1074C6.94695 22.1074 8.23445 21.5787 9.44922 20.5811L9.51465 20.5283L9.58691 20.5703C9.99619 20.8057 10.4184 21.0175 10.8516 21.2041L10.9707 21.2539L10.9141 21.3721C10.4877 22.2615 10.1245 23.1492 9.83594 24H4.30762C1.96783 23.9998 0.0649885 22.1344 0.00292969 19.8096ZM20.8105 20.9619C20.2687 22.7213 18.6305 23.9999 16.6934 24H12.665C12.8724 23.3605 13.12 22.7128 13.4033 22.0791L13.4424 21.9912L13.5361 22.0088C14.4401 22.1761 15.4132 22.2607 16.4268 22.2607C18.1514 22.2607 19.6291 21.7327 20.8105 20.9619ZM20.2773 15.1836C20.5772 15.1837 20.8187 15.2765 21.001 15.4229V17.2979C20.1142 18.4742 17.9618 19.6621 16.3486 19.6621C15.8714 19.6621 15.3993 19.6366 14.9473 19.5869L14.749 19.5654L14.8594 19.3955C16.5991 16.7189 18.5736 15.1836 20.2773 15.1836ZM1.68164 15.2529C3.33216 15.2529 4.55322 16.3954 5.9668 17.7178C6.31512 18.0436 6.67532 18.3811 7.06055 18.7197L7.19043 18.833L7.04199 18.9199C6.33272 19.3356 5.65691 19.5459 5.03418 19.5459C2.77375 19.5456 0.657707 17.3933 0.657227 16.415C0.657227 15.8442 1.04056 15.253 1.68164 15.2529ZM16.6934 0C19.0724 0.000163331 21.001 1.92857 21.001 4.30762V12.5137C20.8098 12.4858 20.6074 12.4688 20.3926 12.4688C17.7716 12.4688 14.8213 14.794 12.2979 18.8467L12.2441 18.9336L12.1484 18.8955C11.9856 18.8287 11.8245 18.7574 11.665 18.6826L11.5186 18.6143L11.623 18.4902C13.7745 15.9374 15.0594 12.8033 15.0596 10.1064C15.0596 5.67167 12.4941 4.5 11.1377 4.5C8.50185 4.50007 6.99023 6.5435 6.99023 10.1064C6.99032 13.0946 7.82175 15.0083 9.46191 15.7959C9.50298 15.7427 9.54341 15.6884 9.58398 15.6348L11.0166 13.2764C10.8317 13.2848 10.6419 13.2092 10.4531 13.0117C9.98342 12.52 9.52167 11.2969 9.56152 10.1016C9.62319 8.2268 10.1976 7.15137 11.1377 7.15137C11.9831 7.15148 12.621 8.42155 12.6211 10.1055C12.6211 11.9631 11.2127 14.8748 9.27344 17.0283L9.19629 17.1143L9.10645 17.042C8.59955 16.6307 8.12157 16.2052 7.65918 15.7939C5.87085 14.2039 4.18123 12.702 1.37305 12.584C0.88799 12.5631 0.42246 12.6664 0 12.8662V4.30762C0 1.9286 1.92866 0.000225083 4.30762 0H16.6934Z" fill="#EDE8E3"></path>
</g><defs>
<clipPath id="clip0_2769_14651">
<rect width="21" height="24" fill="white"></rect>
</clipPath>
</defs></svg></g></g></svg></g></svg>